<svg xmlns="http://www.w3.org/2000/svg" width="192" height="192" viewBox="0 0 192 192">
  <rect width="192" height="192" rx="38" fill="#6C63FF"/>
  <rect x="30" y="44" width="132" height="114" rx="10" fill="white" opacity="0.95"/>
  <rect x="30" y="44" width="132" height="24" rx="10" fill="#5A52E0"/>
  <rect x="30" y="58" width="132" height="10" fill="#5A52E0"/>
  <line x1="68" y1="36" x2="68" y2="56" stroke="white" stroke-width="5" stroke-linecap="round"/>
  <line x1="124" y1="36" x2="124" y2="56" stroke="white" stroke-width="5" stroke-linecap="round"/>
  <circle cx="60" cy="90" r="6" fill="#6C63FF"/>
  <circle cx="96" cy="90" r="6" fill="#6C63FF"/>
  <circle cx="132" cy="90" r="6" fill="#22C55E"/>
  <circle cx="60" cy="114" r="6" fill="#6C63FF"/>
  <circle cx="96" cy="114" r="6" fill="#6C63FF"/>
  <circle cx="132" cy="114" r="6" fill="#6C63FF"/>
  <circle cx="60" cy="138" r="6" fill="#6C63FF"/>
  <circle cx="96" cy="138" r="6" fill="#6C63FF"/>
  <circle cx="132" cy="138" r="6" fill="#6C63FF"/>
  <polyline points="127,89 131,93 138,86" stroke="white" stroke-width="2.5" stroke-linecap="round" stroke-linejoin="round" fill="none"/>
</svg>
